<?xml version="1.0" encoding="utf-8"?>
<!-- Generator: Adobe Illustrator 25.2.3, SVG Export Plug-In . SVG Version: 6.00 Build 0)  -->
<svg version="1.1" id="레이어_1" xmlns="http://www.w3.org/2000/svg" xmlns:xlink="http://www.w3.org/1999/xlink" x="0px"
	 y="0px" viewBox="0 0 600 600" enable-background="new 0 0 600 600" xml:space="preserve">
<g>
	<path fill="#FFFFFF" d="M86.78,210.95c0.76,1.46,1.35,3.06,2.33,4.36c1.37,1.83,3.38,2.75,5.68,2.93c0.93,0.07,1.87,0.09,2.8,0.09
		c127.03,0,254.05,0,381.08,0c0.59,0,1.18,0,2.17,0c-1.77,1.87-3.28,3.49-4.81,5.08c-21.78,22.67-43.54,45.35-65.35,67.99
		c-2.66,2.76-4.08,5.77-2.92,9.6c1.96,6.47,9.9,8.48,14.75,3.66c4.27-4.25,8.38-8.66,12.56-13c16.51-17.18,33.01-34.36,49.51-51.53
		c9.64-10.04,19.28-20.07,28.93-30.11c0.16-0.16,0.29-0.35,0.51-0.61c-2.21-2.31-4.39-4.6-6.58-6.88
		c-16.9-17.58-33.8-35.15-50.7-52.72c-11.4-11.85-22.76-23.73-34.2-35.54c-4.55-4.7-12.05-3.25-14.54,2.77
		c-1.44,3.49-0.76,6.71,1.79,9.46c2.7,2.91,5.48,5.75,8.23,8.61c20.68,21.53,41.35,43.05,62.03,64.57c0.19,0.2,0.37,0.41,0.69,0.77
		c-0.49,0.05-0.82,0.11-1.16,0.13c-0.37,0.02-0.75,0-1.12,0c-126.79,0-253.58,0.02-380.38-0.06c-5.64,0-9.58,1.73-11.29,7.35
		C86.78,208.9,86.78,209.93,86.78,210.95z"/>
</g>
</svg>
