<svg width="17" height="16" viewBox="0 0 17 16" fill="none" xmlns="http://www.w3.org/2000/svg">
<path d="M8.84464 0.921041C8.8002 0.874382 8.74675 0.837237 8.68753 0.811855C8.6283 0.786474 8.56454 0.773386 8.50011 0.773386C8.43568 0.773386 8.37191 0.786474 8.31269 0.811855C8.25347 0.837237 8.20002 0.874382 8.15558 0.921041L1.42902 7.6476C0.597935 8.47869 0.131039 9.60587 0.131039 10.7812C0.131039 11.9565 0.597935 13.0837 1.42902 13.9148C2.2601 14.7459 3.38728 15.2128 4.56261 15.2128C5.73794 15.2128 6.86512 14.7459 7.6962 13.9148L15.9485 5.76909C16.5338 5.18494 16.863 4.39223 16.8638 3.56535C16.8645 2.73847 16.5368 1.94515 15.9526 1.35991C15.3685 0.774672 14.5758 0.445456 13.7489 0.444688C12.922 0.443918 12.1287 0.771659 11.5435 1.35581L3.29113 9.50151C3.12192 9.66886 2.98765 9.86817 2.89611 10.0878C2.80458 10.3075 2.7576 10.5432 2.75792 10.7812C2.76038 11.1374 2.86774 11.4851 3.0666 11.7806C3.26545 12.0762 3.54699 12.3067 3.87603 12.4432C4.20508 12.5797 4.56706 12.6162 4.91676 12.5483C5.26646 12.4803 5.58837 12.3107 5.8423 12.0609L12.7821 5.22768C12.8285 5.18244 12.8654 5.12851 12.8909 5.06899C12.9164 5.00946 12.9299 4.9455 12.9307 4.88075C12.9314 4.816 12.9194 4.75174 12.8953 4.69163C12.8713 4.63152 12.8356 4.57674 12.7903 4.53042C12.7451 4.48409 12.6912 4.44714 12.6316 4.42166C12.5721 4.39617 12.5082 4.38267 12.4434 4.38191C12.3787 4.38115 12.3144 4.39314 12.2543 4.41722C12.1942 4.44129 12.1394 4.47697 12.0931 4.52221L5.14503 11.3554C5.07022 11.4345 4.97985 11.4971 4.8796 11.5395C4.77936 11.5818 4.67142 11.603 4.56261 11.6015C4.39968 11.6025 4.24015 11.5549 4.10437 11.4648C3.96859 11.3747 3.86271 11.2463 3.80023 11.0958C3.73775 10.9453 3.7215 10.7796 3.75355 10.6199C3.7856 10.4601 3.8645 10.3135 3.98019 10.1988L12.2407 2.05307C12.641 1.65276 13.184 1.42787 13.7501 1.42787C14.3162 1.42787 14.8592 1.65276 15.2595 2.05307C15.6598 2.45339 15.8847 2.99632 15.8847 3.56245C15.8847 4.12857 15.6598 4.67151 15.2595 5.07182L6.99894 13.2175C6.35278 13.8637 5.47641 14.2267 4.56261 14.2267C3.64881 14.2267 2.77244 13.8637 2.12628 13.2175C1.48013 12.5714 1.11712 11.695 1.11712 10.7812C1.11712 9.8674 1.48013 8.99102 2.12628 8.34487L8.84464 1.6101C8.8913 1.56567 8.92845 1.51222 8.95383 1.45299C8.97921 1.39377 8.9923 1.33001 8.9923 1.26557C8.9923 1.20114 8.97921 1.13738 8.95383 1.07815C8.92845 1.01893 8.8913 0.965478 8.84464 0.921041Z" fill="#999999"/>
</svg>
