<?xml version="1.0" encoding="utf-8"?>
<!-- Generator: Adobe Illustrator 25.2.3, SVG Export Plug-In . SVG Version: 6.00 Build 0)  -->
<svg version="1.1" id="레이어_1" xmlns="http://www.w3.org/2000/svg" xmlns:xlink="http://www.w3.org/1999/xlink" x="0px"
	 y="0px" viewBox="0 0 1440 2411" enable-background="new 0 0 1440 2411" xml:space="preserve">
<path fill="#ECF3FB" d="M-0.41,943.07c0,0,660-224.59,1440,0v1728.41h-1440V943.07z"/>
<path fill="#FFFFFF" d="M328.58,1913.79c2.88,1.45,4.37,3.69,4,6.91c-0.3,2.56-1.74,4.38-4.17,5.22c-3.23,1.12-5.83,0-7.84-2.67
	c-2.08,3.44-5.98,4.2-9.21,1.6c-2.47,1.57-5.23,1.91-8.17-1.04c-2.05,1.5-4.26,1.8-6.49,0.5c-2.13-1.24-2.98-3.22-2.65-5.64
	c0.31-2.27,1.66-3.77,3.82-4.45c0.74-0.23,0.96-0.53,1.07-1.26c0.65-4.16,4.88-6.8,9.01-5.65c0.66,0.18,1.02,0.13,1.49-0.44
	c1.44-1.76,4.01-1.94,5.75-0.5c0.22,0.18,0.41,0.37,0.62,0.56c3.7-3.15,6.4-3.71,9.5-1.97
	C328.26,1906.63,329.31,1909.42,328.58,1913.79z"/>
<path fill="#FFFFFF" d="M1243.88,1044.94c1.26-1.48,2.74-2.51,4.68-2.83c4.25-0.71,8.15,2.41,8.26,6.72c0.02,0.93-0.48,2-0.16,2.77
	c0.29,0.71,1.44,1.03,2.08,1.66c2.6,2.54,2.46,6.85-0.25,9.31c-2.67,2.41-6.9,2.1-9.22-0.67c-0.22-0.26-0.44-0.52-0.75-0.87
	c-0.81,1.38-1.79,2.47-3.26,2.92c-1.89,0.58-3.66,0.36-5.29-0.85c-0.24-0.18-0.72-0.31-0.96-0.19c-3.22,1.56-4.93,1.31-7.52-1.01
	c-1.42,0.37-2.7,0.92-4,1c-2.64,0.15-4.97-1.87-5.4-4.38c-0.48-2.83,1.05-5.48,3.72-6.3c0.73-0.22,1.04-0.48,1.18-1.3
	c0.7-4.22,4.86-6.78,9.01-5.63c0.44,0.12,0.82,0.35,1.28-0.2c1.76-2.12,4.11-2.27,6.17-0.49
	C1243.56,1044.69,1243.7,1044.8,1243.88,1044.94z"/>
<path fill="#FFFFFF" d="M1212.1,1124.03c-2.59,2.99-4.59,3.33-7.38,1.25c-2.37,1.58-4.58,1.31-6.33-0.59
	c-1.2,0.29-2.21,0.7-3.23,0.75c-2.12,0.1-3.91-1.4-4.32-3.43c-0.43-2.14,0.72-4.33,2.78-5.03c0.72-0.25,1.04-0.52,1.21-1.31
	c0.71-3.36,3.88-5.21,7.21-4.35c0.29,0.07,0.76,0.04,0.93-0.14c1.65-1.74,3.3-1.85,5.1-0.29c0.06,0.05,0.14,0.09,0.15,0.1
	c0.82-0.59,1.54-1.3,2.41-1.7c2.12-0.98,4.19-0.74,6.03,0.73c1.86,1.49,2.37,3.51,1.94,5.77c-0.11,0.6,0,0.83,0.5,1.11
	c2.03,1.16,2.91,2.98,2.59,5.26c-0.29,2.11-1.55,3.56-3.62,4.14c-2.15,0.59-4.01,0.03-5.47-1.7
	C1212.42,1124.41,1212.26,1124.22,1212.1,1124.03z"/>
<path fill="#FFFFFF" d="M1289.93,1615.8c4.21-1.1,5.94-0.13,7.44,4.02c1.25-0.04,2.48-0.27,3.63-0.06c2.06,0.37,3.34,1.8,3.72,3.83
	c0.38,2.01-0.23,3.78-1.96,5c-1.74,1.24-3.62,1.35-5.44,0.25c-0.74-0.45-1.26-0.42-1.99-0.06c-2.67,1.29-5.53,1.22-8.37,0.94
	c-1.53-0.15-3.02-0.61-4.53-0.89c-0.32-0.06-0.75-0.1-0.99,0.06c-2.69,1.8-5.63,1.66-8.63,1.21c-1.54-0.23-3.08-0.4-4.32-1.74
	c-1.31,1.33-2.93,1.81-4.64,1.4c-0.94-0.23-1.89-0.78-2.61-1.44c-1.56-1.44-1.82-3.97-0.78-5.84c1.26-2.29,3.12-2.83,7.02-2.03
	c0-1.43-0.23-2.91,0.05-4.27c0.66-3.19,2.73-5.26,5.86-6.14c3.09-0.88,5.85-0.11,8.14,2.12c0.56,0.54,0.94,0.68,1.7,0.38
	c2.48-0.99,5.12,0.08,6.32,2.46C1289.68,1615.24,1289.79,1615.49,1289.93,1615.8z"/>
<path fill="#FFFFFF" d="M300.91,1173.96c0.06-1.27-0.05-2.44,0.19-3.54c0.55-2.52,2.18-4.18,4.66-4.88c2.48-0.7,4.7-0.08,6.54,1.73
	c0.46,0.45,0.78,0.52,1.37,0.28c1.92-0.78,4,0.05,4.96,1.89c0.12,0.22,0.23,0.45,0.35,0.66c0.69-0.09,1.34-0.23,2-0.24
	c1.86-0.03,3.43,1.17,3.79,2.98c0.15,0.75,0.4,0.73,1.01,0.56c1.62-0.44,3.08-0.14,4.21,1.2c1.04,1.22,1.25,2.95,0.47,4.36
	c-0.81,1.46-2.08,2.23-3.76,2.08c-0.67-0.06-1.31-0.46-1.98-0.66c-0.31-0.09-0.72-0.2-0.98-0.08c-2.41,1.17-4.94,1.22-7.52,0.88
	c-0.5-0.07-1.02-0.12-1.49-0.28c-1.39-0.48-2.61-0.38-3.99,0.32c-1.7,0.88-3.62,0.59-5.48,0.31c-1.15-0.18-2.27-0.36-3.22-1.13
	c-0.14-0.12-0.66,0.1-0.93,0.27c-2.15,1.4-5.02,0.56-5.91-1.81c-0.55-1.48-0.35-2.92,0.77-4.09c1.12-1.17,2.49-1.61,4.08-1.11
	C300.36,1173.75,300.64,1173.86,300.91,1173.96z"/>
<path fill="#FFFFFF" d="M178.53,1481.53c1.55,0.94,2.67,0.96,3.6,0.1c0.84-0.78,1.07-1.99,0.55-3.01c-0.61-1.2-1.58-1.5-3.61-1.1
	c0.03-0.43,0.07-0.85,0.07-1.28c0.01-2.12-1.52-3.86-3.61-4.16c-1.46-0.21-2.67,0.26-3.72,1.26c-0.13,0.13-0.44,0.25-0.57,0.18
	c-1.42-0.68-3.05,0.09-3.51,1.41c-0.02,0.06-0.07,0.12-0.1,0.17c-2.55-0.29-3.16,0.06-3.83,2.2c-0.21-0.05-0.43-0.1-0.64-0.16
	c-1.38-0.37-2.78,0.51-3.09,1.95c-0.3,1.37,0.68,2.75,2.07,2.97c0.67,0.11,1.26-0.05,1.85-0.38c0.18-0.1,0.49-0.12,0.67-0.04
	c1.4,0.68,2.88,0.73,4.37,0.56c0.83-0.09,1.65-0.32,2.48-0.47c0.16-0.03,0.38-0.03,0.5,0.06c1.25,0.87,2.66,0.79,4.06,0.64
	C176.94,1482.32,177.89,1482.28,178.53,1481.53z"/>
<path fill="#FFFFFF" d="M201.25,1456.33c-2.09,1.69-4.34,2.03-6.79,0.84c-0.22-0.1-0.6-0.03-0.83,0.1
	c-2.12,1.18-4.14,1.09-6.13-0.32c-0.25-0.18-0.77-0.18-1.06-0.04c-1.78,0.83-3.73,0.36-4.74-1.22c-1.01-1.58-0.65-3.61,0.9-4.78
	c0.42-0.31,0.55-0.55,0.46-1.1c-0.71-4.14,2.45-7.09,6.53-6.14c0.13,0.03,0.27,0.04,0.47,0.07c0.05-0.21,0.12-0.4,0.13-0.59
	c0.11-2.04,1.06-3.57,2.89-4.43c1.81-0.86,3.63-0.74,5.29,0.43c0.52,0.36,0.96,0.5,1.61,0.42c2.51-0.29,4.42,0.77,5.48,3.02
	c0.26,0.54,0.55,0.7,1.11,0.71c2.11,0.05,3.58,1.13,4.44,3c0.28,0.62,0.56,0.87,1.28,0.93c2.75,0.21,4.76,2.31,4.85,4.92
	c0.09,2.74-1.7,5.02-4.47,5.34c-1.05,0.12-2.16-0.36-3.25-0.55c-0.28-0.05-0.66-0.22-0.84-0.1
	C206.02,1458.44,203.6,1458.16,201.25,1456.33z"/>
<path fill="#FFFFFF" d="M1142.18,2009.27c-2.06,1.66-4.31,1.98-6.75,0.77c-0.19-0.1-0.55-0.03-0.76,0.09
	c-2.14,1.24-4.19,1.15-6.21-0.31c-0.23-0.17-0.72-0.17-0.99-0.04c-1.83,0.84-3.75,0.39-4.76-1.16c-1.04-1.6-0.64-3.5,0.97-4.87
	c0.22-0.19,0.4-0.62,0.36-0.91c-0.56-4.43,2.29-7.07,6.7-6.18c0.1,0.02,0.21,0,0.38,0c0.06-0.49,0.07-0.98,0.17-1.45
	c0.82-3.69,5.03-5.28,8.15-3.12c0.4,0.28,1,0.42,1.49,0.38c2.5-0.21,4.39,0.81,5.54,3.02c0.17,0.32,0.62,0.65,0.97,0.68
	c2.31,0.18,3.84,1.33,4.78,3.42c0.13,0.29,0.66,0.52,1.03,0.56c2.89,0.33,4.86,2.38,4.88,5.13c0.03,3.81-3.89,6.36-7.33,4.72
	c-0.68-0.32-1.13-0.32-1.8,0.05c-1.97,1.1-3.96,0.99-5.89-0.2c-0.27-0.17-0.52-0.35-0.78-0.53
	C1142.3,2009.28,1142.26,2009.28,1142.18,2009.27z"/>
</svg>
