<svg width="20" height="20" viewBox="0 0 20 20" fill="none" xmlns="http://www.w3.org/2000/svg">
<path d="M10 9.61687C10 9.61687 9.465 6.26625 9.465 6.03281C9.465 5.79938 9.705 5.60969 10 5.60969C10.295 5.60969 10.535 5.79906 10.535 6.03281C10.535 6.26656 10 9.61687 10 9.61687ZM10 10.3991C10 10.3991 10.535 13.7494 10.535 13.9831C10.535 14.2169 10.295 14.4062 10 14.4062C9.705 14.4062 9.465 14.2172 9.465 13.9831C9.465 13.7491 10 10.3991 10 10.3991ZM9.60875 10.0078C9.60875 10.0078 6.25844 10.5428 6.025 10.5428C5.79125 10.5428 5.60188 10.3031 5.60188 10.0078C5.60188 9.71281 5.79125 9.47312 6.025 9.47312C6.25844 9.47312 9.60875 10.0078 9.60875 10.0078ZM10.3912 10.0078C10.3912 10.0078 13.7416 9.47312 13.9753 9.47312C14.2087 9.47312 14.3984 9.71281 14.3984 10.0078C14.3984 10.3031 14.2091 10.5428 13.9753 10.5428C13.7416 10.5428 10.3912 10.0078 10.3912 10.0078ZM9.72313 9.73156C9.72313 9.73156 6.97594 7.74094 6.81125 7.57563C6.64594 7.41062 6.68125 7.10719 6.89031 6.89844C7.09906 6.68969 7.40219 6.65438 7.5675 6.81938C7.73219 6.98438 9.72313 9.73156 9.72313 9.73156ZM10.2769 10.2847C10.2769 10.2847 13.0241 12.2753 13.1887 12.4406C13.3541 12.6059 13.3188 12.9091 13.1097 13.1181C12.9009 13.3269 12.5978 13.3622 12.4325 13.1969C12.2678 13.0316 10.2769 10.2847 10.2769 10.2847ZM9.72313 10.2847C9.72313 10.2847 7.73219 13.0316 7.5675 13.1969C7.40219 13.3622 7.09906 13.3269 6.89031 13.1181C6.68125 12.9091 6.64594 12.6059 6.81125 12.4406C6.97594 12.2753 9.72313 10.2847 9.72313 10.2847ZM10.2769 9.73156C10.2769 9.73156 12.2678 6.98438 12.4325 6.81938C12.5978 6.65438 12.9009 6.68969 13.1097 6.89844C13.3188 7.10719 13.3541 7.41062 13.1887 7.57563C13.0241 7.74094 10.2769 9.73156 10.2769 9.73156ZM9.73625 9.35563C9.73625 9.35563 6.98156 3.96438 6.82406 3.57437C6.66656 3.18437 6.76062 2.77875 7.03438 2.66813C7.30844 2.5575 7.65781 2.78406 7.81531 3.17406C7.97281 3.56344 9.73625 9.35563 9.73625 9.35563ZM10.2638 10.6609C10.2638 10.6609 13.0184 16.0519 13.1759 16.4422C13.3334 16.8319 13.2394 17.2375 12.9656 17.3478C12.6916 17.4587 12.3422 17.2325 12.1847 16.8425C12.0272 16.4525 10.2638 10.6609 10.2638 10.6609ZM9.34719 10.2719C9.34719 10.2719 3.95594 13.0266 3.56594 13.1841C3.17594 13.3419 2.77031 13.2475 2.65969 12.9734C2.54906 12.7 2.77562 12.35 3.16563 12.1925C3.55531 12.035 9.34719 10.2719 9.34719 10.2719ZM10.6528 9.74438C10.6528 9.74438 16.0441 6.98969 16.4341 6.83219C16.8241 6.67438 17.2297 6.76906 17.3403 7.04281C17.4509 7.31656 17.2244 7.66625 16.8344 7.82375C16.4447 7.98094 10.6528 9.74438 10.6528 9.74438ZM9.35188 9.73312C9.35188 9.73312 3.59156 7.86906 3.20469 7.70469C2.81781 7.54063 2.5975 7.18719 2.71281 6.915C2.82812 6.64344 3.23594 6.55625 3.62281 6.72062C4.00969 6.88438 9.35188 9.73312 9.35188 9.73312ZM10.6481 10.2831C10.6481 10.2831 16.4084 12.1472 16.7953 12.3112C17.1822 12.4756 17.4025 12.8294 17.2872 13.1009C17.1719 13.3731 16.7641 13.4603 16.3772 13.2956C15.9903 13.1316 10.6481 10.2831 10.6481 10.2831ZM9.725 10.6562C9.725 10.6562 7.86094 16.4166 7.69656 16.8037C7.53219 17.1906 7.17875 17.4109 6.90687 17.2956C6.635 17.18 6.54813 16.7725 6.71187 16.3856C6.87656 15.9984 9.725 10.6562 9.725 10.6562ZM10.275 9.36C10.275 9.36 12.1391 3.59969 12.3034 3.21281C12.4678 2.82562 12.8212 2.60562 13.0931 2.72094C13.365 2.83625 13.4522 3.24344 13.2881 3.63063C13.1234 4.01781 10.275 9.36 10.275 9.36ZM10.0019 14.7087C10.0019 14.7087 10.5375 18.61 10.5375 18.8819C10.5375 19.1537 10.2981 19.375 10.0028 19.375C9.7075 19.375 9.46813 19.1547 9.46813 18.8825C9.46813 18.6103 10.0019 14.7087 10.0019 14.7087ZM9.99844 4.98594C9.99844 4.98594 9.4625 1.33969 9.4625 1.08562C9.4625 0.831562 9.70187 0.625 9.99719 0.625C10.2925 0.625 10.5319 0.830938 10.5319 1.08531C10.5319 1.33969 9.99844 4.98594 9.99844 4.98594ZM13.3309 13.3281C13.3309 13.3281 16.4684 15.7081 16.6603 15.9003C16.8531 16.0928 16.8397 16.4178 16.6309 16.6269C16.4222 16.8356 16.0969 16.8491 15.9047 16.6569C15.7122 16.465 13.3309 13.3281 13.3309 13.3281ZM6.45344 6.45563C6.45344 6.45563 3.49625 4.25625 3.31625 4.07656C3.13656 3.89656 3.16 3.58156 3.36875 3.37281C3.5775 3.16375 3.89281 3.14031 4.0725 3.32031C4.2525 3.49969 6.45344 6.45563 6.45344 6.45563ZM13.3309 6.67156C13.3309 6.67156 15.7122 3.53531 15.9047 3.34312C16.0969 3.15062 16.4222 3.16406 16.6309 3.37312C16.8397 3.58187 16.8531 3.90719 16.6603 4.09938C16.4684 4.29125 13.3309 6.67156 13.3309 6.67156ZM6.45344 13.5441C6.45344 13.5441 4.2525 16.5003 4.0725 16.6797C3.89281 16.8597 3.5775 16.8359 3.36875 16.6272C3.16 16.4181 3.13656 16.1031 3.31625 15.9234C3.49625 15.7438 6.45344 13.5441 6.45344 13.5441ZM14.7087 9.99813C14.7087 9.99813 18.61 9.4625 18.8822 9.4625C19.1544 9.46219 19.375 9.70187 19.375 9.99687C19.3753 10.2922 19.155 10.5319 18.8828 10.5319C18.6106 10.5322 14.7087 9.99813 14.7087 9.99813ZM4.98625 10.0019C4.98625 10.0019 1.33937 10.5372 1.08562 10.5375C0.830937 10.5375 0.625 10.2978 0.625 10.0028C0.625 9.7075 0.830937 9.46781 1.08562 9.46781C1.33937 9.46781 4.98625 10.0019 4.98625 10.0019Z" fill="white"/>
</svg>
