<svg width="12" height="18" viewBox="0 0 12 18" fill="none" xmlns="http://www.w3.org/2000/svg">
<path d="M1.375 0.25C1.54076 0.25 1.69973 0.315848 1.81694 0.433058C1.93415 0.550268 2 0.70924 2 0.875V4.625C1.9998 5.01291 2.11991 5.39133 2.34379 5.70811C2.56766 6.0249 2.88428 6.26445 3.25 6.39375V0.875C3.25 0.70924 3.31585 0.550268 3.43306 0.433058C3.55027 0.315848 3.70924 0.25 3.875 0.25C4.04076 0.25 4.19973 0.315848 4.31694 0.433058C4.43415 0.550268 4.5 0.70924 4.5 0.875V6.39375C4.86572 6.26445 5.18234 6.0249 5.40621 5.70811C5.63009 5.39133 5.7502 5.01291 5.75 4.625V0.875C5.75 0.70924 5.81585 0.550268 5.93306 0.433058C6.05027 0.315848 6.20924 0.25 6.375 0.25C6.54076 0.25 6.69973 0.315848 6.81694 0.433058C6.93415 0.550268 7 0.70924 7 0.875V4.625C7.00015 5.34541 6.75139 6.04374 6.29582 6.60181C5.84025 7.15989 5.20585 7.54342 4.5 7.6875V17.125C4.5 17.2908 4.43415 17.4497 4.31694 17.5669C4.19973 17.6842 4.04076 17.75 3.875 17.75C3.70924 17.75 3.55027 17.6842 3.43306 17.5669C3.31585 17.4497 3.25 17.2908 3.25 17.125V7.6875C2.54415 7.54342 1.90975 7.15989 1.45418 6.60181C0.998615 6.04374 0.749853 5.34541 0.75 4.625V0.875C0.75 0.70924 0.815848 0.550268 0.933058 0.433058C1.05027 0.315848 1.20924 0.25 1.375 0.25ZM10.0988 2.09875C10.2975 1.89875 10.5212 1.745 10.75 1.64375V7.75H9.5V3.375C9.5 2.95375 9.7175 2.47875 10.0988 2.09875ZM10.75 9V17.125C10.75 17.2908 10.8158 17.4497 10.9331 17.5669C11.0503 17.6842 11.2092 17.75 11.375 17.75C11.5408 17.75 11.6997 17.6842 11.8169 17.5669C11.9342 17.4497 12 17.2908 12 17.125V0.875C12 0.70924 11.9342 0.550268 11.8169 0.433058C11.6997 0.315848 11.5408 0.25 11.375 0.25C10.5463 0.25 9.77125 0.6575 9.21375 1.21375C8.6575 1.77125 8.25 2.54625 8.25 3.375V8.375C8.25 8.54076 8.31585 8.69973 8.43306 8.81694C8.55027 8.93415 8.70924 9 8.875 9H10.75Z" fill="white"/>
</svg>
