<svg width="12" height="14" viewBox="0 0 12 14" fill="none" xmlns="http://www.w3.org/2000/svg">
<path d="M2.48578 0.544576L3.59264 0.210861C3.95794 0.100899 4.35076 0.127579 4.69784 0.285925C5.04492 0.44427 5.32254 0.723467 5.47892 1.07143L6.25492 2.79715C6.38961 3.09653 6.42715 3.43058 6.36227 3.75239C6.2974 4.0742 6.13337 4.36761 5.89321 4.59143L4.71207 5.692C4.55378 5.84229 4.67378 6.428 5.25207 7.43029C5.83092 8.43315 6.27835 8.82972 6.48464 8.768L8.03206 8.29486C8.34573 8.19892 8.68155 8.20353 8.99246 8.30806C9.30337 8.41258 9.57378 8.61178 9.76578 8.87772L10.8686 10.4063C11.0914 10.715 11.1945 11.094 11.1589 11.473C11.1233 11.852 10.9513 12.2051 10.6749 12.4669L9.82235 13.2743C9.54712 13.5349 9.20769 13.7179 8.83866 13.8045C8.46964 13.8912 8.08424 13.8784 7.72178 13.7674C5.93549 13.2206 4.28121 11.5977 2.73664 8.92172C1.18864 6.24172 0.604065 3.98115 1.01149 2.13429C1.09367 1.76215 1.2736 1.41866 1.53275 1.13922C1.79189 0.859784 2.12088 0.654516 2.48578 0.544576Z" fill="#0593D2"/>
</svg>
