<svg width="8" height="10" viewBox="0 0 8 10" fill="none" xmlns="http://www.w3.org/2000/svg">
<path d="M2.384 0.0957746C2.89925 0.0252745 3.33225 0.340525 3.53725 0.750275L4.0415 1.75852C4.32125 2.31802 4.1605 2.97452 3.7365 3.38752C3.486 3.63127 3.23425 3.90977 3.08825 4.15552C3.07858 4.17304 3.07556 4.19346 3.07975 4.21302C3.21475 4.94452 3.7105 5.66727 4.15275 6.18552C4.175 6.21023 4.20402 6.22784 4.23621 6.23616C4.2684 6.24447 4.30233 6.24312 4.33375 6.23228L5.3275 5.92177C5.59519 5.8381 5.88265 5.84238 6.14773 5.93398C6.41281 6.02558 6.64158 6.19969 6.8005 6.43077L7.51975 7.47678C7.71475 7.76078 7.8135 8.14577 7.664 8.51602C7.5305 8.84678 7.27225 9.32377 6.8025 9.64102C6.315 9.97002 5.64725 10.095 4.7735 9.79552C3.79725 9.46052 2.875 8.62053 2.11025 7.54628C1.341 6.46528 0.707753 5.11502 0.323753 3.70702C-0.0389973 2.37752 0.180003 1.48252 0.695503 0.906275C1.19275 0.350275 1.90525 0.161525 2.384 0.0957746ZM2.97825 1.02977C2.864 0.801525 2.66025 0.688775 2.469 0.715025C2.04375 0.773525 1.51125 0.931774 1.1615 1.32302C0.830003 1.69377 0.600503 2.34677 0.926503 3.54252C1.29275 4.88452 1.89575 6.16703 2.6195 7.18377C3.34775 8.20702 4.17525 8.92953 4.97625 9.20428C5.69 9.44903 6.14875 9.32802 6.45275 9.12302C6.77425 8.90578 6.972 8.56052 7.0845 8.28202C7.136 8.15452 7.11375 7.98953 7.00475 7.83103L6.2855 6.78502C6.20228 6.66397 6.08247 6.57276 5.94363 6.52475C5.80479 6.47675 5.65423 6.47448 5.514 6.51827L4.52025 6.82877C4.22325 6.92153 3.88875 6.83877 3.6775 6.59127C3.21725 6.05202 2.63075 5.22502 2.465 4.32627C2.43332 4.15784 2.46388 3.98362 2.551 3.83602C2.7405 3.51752 3.0405 3.19277 3.30025 2.93977C3.554 2.69277 3.626 2.32527 3.4825 2.03802L2.97825 1.03002V1.02977Z" fill="white"/>
</svg>
