<svg width="10" height="13" viewBox="0 0 10 13" fill="none" xmlns="http://www.w3.org/2000/svg">
<path d="M4.99992 12.875C4.15788 12.1118 3.37738 11.2752 2.66659 10.3739C1.59992 9.02023 0.333253 7.00432 0.333253 5.08332C0.33279 4.10225 0.606258 3.14308 1.11905 2.32721C1.63184 1.51134 2.3609 0.875434 3.21396 0.499974C4.06703 0.124514 5.00575 0.0263768 5.91133 0.217982C6.81691 0.409587 7.64864 0.882322 8.30125 1.57636C8.73576 2.03597 9.08015 2.58257 9.31451 3.18454C9.54887 3.78651 9.66854 4.43188 9.66659 5.08332C9.66659 7.00432 8.39992 9.02023 7.33325 10.3739C6.62246 11.2752 5.84196 12.1118 4.99992 12.875ZM4.99992 2.95832C4.46949 2.95832 3.96078 3.1822 3.58571 3.58072C3.21063 3.97923 2.99992 4.51973 2.99992 5.08332C2.99992 5.6469 3.21063 6.18741 3.58571 6.58592C3.96078 6.98444 4.46949 7.20832 4.99992 7.20832C5.53035 7.20832 6.03906 6.98444 6.41413 6.58592C6.78921 6.18741 6.99992 5.6469 6.99992 5.08332C6.99992 4.51973 6.78921 3.97923 6.41413 3.58072C6.03906 3.1822 5.53035 2.95832 4.99992 2.95832Z" fill="#0593D2"/>
</svg>
