<svg width="8" height="11" viewBox="0 0 8 11" fill="none" xmlns="http://www.w3.org/2000/svg">
<path d="M4.9375 4.8125C4.9375 4.539 4.83873 4.27669 4.66291 4.0833C4.4871 3.8899 4.24864 3.78125 4 3.78125C3.75136 3.78125 3.5129 3.8899 3.33709 4.0833C3.16127 4.27669 3.0625 4.539 3.0625 4.8125C3.0625 5.086 3.16127 5.34831 3.33709 5.5417C3.5129 5.7351 3.75136 5.84375 4 5.84375C4.24864 5.84375 4.4871 5.7351 4.66291 5.5417C4.83873 5.34831 4.9375 5.086 4.9375 4.8125V4.8125ZM7.75 4.8125C7.75 6.78837 5.81438 8.9485 4.72438 10.0086C4.52507 10.2044 4.26721 10.3126 4 10.3126C3.73279 10.3126 3.47493 10.2044 3.27563 10.0086C2.18563 8.9485 0.25 6.78837 0.25 4.8125C0.25 4.2708 0.346997 3.7344 0.535452 3.23393C0.723907 2.73346 1.00013 2.27873 1.34835 1.89568C1.69657 1.51264 2.10997 1.2088 2.56494 1.0015C3.01991 0.794196 3.50754 0.6875 4 0.6875C4.49246 0.6875 4.98009 0.794196 5.43506 1.0015C5.89003 1.2088 6.30343 1.51264 6.65165 1.89568C6.99987 2.27873 7.27609 2.73346 7.46455 3.23393C7.653 3.7344 7.75 4.2708 7.75 4.8125V4.8125ZM7.125 4.8125C7.125 3.90082 6.79576 3.02648 6.20971 2.38182C5.62366 1.73716 4.8288 1.375 4 1.375C3.1712 1.375 2.37634 1.73716 1.79029 2.38182C1.20424 3.02648 0.875 3.90082 0.875 4.8125C0.875 5.57425 1.25938 6.45906 1.85625 7.34456C2.44 8.20944 3.16062 8.97875 3.68937 9.49369C3.77445 9.57852 3.88517 9.62551 4 9.62551C4.11483 9.62551 4.22555 9.57852 4.31062 9.49369C4.83937 8.97875 5.56063 8.21012 6.14375 7.34456C6.74063 6.45906 7.125 5.57425 7.125 4.8125Z" fill="white"/>
</svg>
