<svg width="16" height="19" viewBox="0 0 16 19" fill="none" xmlns="http://www.w3.org/2000/svg">
<path d="M6.06482 0.375886C6.15169 0.326269 6.24999 0.300171 6.35002 0.300171C6.45006 0.300171 6.54836 0.326269 6.63522 0.375886L10.2934 2.46659C10.531 2.6028 10.7197 2.81045 10.8326 3.06004C10.9455 3.30962 10.9769 3.58844 10.9223 3.85687C10.8676 4.1253 10.7298 4.36968 10.5283 4.55529C10.3269 4.7409 10.072 4.85829 9.80002 4.89079V7.41389C10.1584 7.5804 10.4678 7.83645 10.6984 8.15732C10.9291 8.4782 11.0732 8.85309 11.1168 9.24584L12.0253 17.4223C12.0432 17.5831 12.0271 17.7459 11.9778 17.9001C11.9285 18.0542 11.8473 18.1962 11.7394 18.3168C11.6315 18.4374 11.4994 18.5338 11.3517 18.5999C11.204 18.6659 11.044 18.7 10.8822 18.7H1.81902C1.65732 18.7 1.49744 18.6659 1.34981 18.5999C1.20217 18.534 1.07011 18.4376 0.962241 18.3172C0.854369 18.1967 0.773115 18.0548 0.723779 17.9009C0.674444 17.7469 0.658137 17.5842 0.675924 17.4235L1.58442 9.24699C1.62755 8.85395 1.77128 8.47867 2.00173 8.15737C2.23218 7.83607 2.54156 7.57961 2.90002 7.41274V4.89079C2.62794 4.85849 2.37296 4.74124 2.17134 4.55571C1.96972 4.37017 1.83172 4.12581 1.77696 3.85734C1.72219 3.58887 1.75346 3.30998 1.8663 3.0603C1.97915 2.81062 2.16783 2.60287 2.40552 2.46659L6.06482 0.375886ZM6.35002 1.53739L2.97707 3.46479C2.94806 3.48164 2.92539 3.50757 2.91257 3.53858C2.89974 3.56958 2.89747 3.60395 2.9061 3.63637C2.91473 3.6688 2.93378 3.69749 2.96032 3.71802C2.98686 3.73855 3.01942 3.74978 3.05297 3.74999H9.64707C9.68063 3.74978 9.71318 3.73855 9.73973 3.71802C9.76627 3.69749 9.78532 3.6688 9.79395 3.63637C9.80258 3.60395 9.80031 3.56958 9.78748 3.53858C9.77465 3.50757 9.75199 3.48164 9.72297 3.46479L6.35002 1.53739ZM8.83977 8.34999H3.86027C3.57875 8.35222 3.30783 8.45764 3.09885 8.64628C2.88986 8.83492 2.75733 9.09367 2.72637 9.37349L2.48027 11.5849L9.99782 9.58049L9.97482 9.37349C9.94384 9.09347 9.81115 8.83457 9.60192 8.6459C9.3927 8.45724 9.12149 8.35194 8.83977 8.34999ZM8.65002 7.19999V4.89999H4.05002V7.19999H8.65002ZM2.08582 15.1407L10.3693 12.9316L10.1255 10.7362L2.34457 12.812L2.08582 15.1407ZM1.94897 16.3666L1.81787 17.55H10.8822L10.4981 14.0873L1.94897 16.3666ZM12.675 6.04999H14.975C15.1275 6.04999 15.2738 5.98941 15.3816 5.88157C15.4894 5.77374 15.55 5.62749 15.55 5.47499C15.55 5.32249 15.4894 5.17623 15.3816 5.0684C15.2738 4.96057 15.1275 4.89999 14.975 4.89999H12.675C12.5225 4.89999 12.3763 4.96057 12.2684 5.0684C12.1606 5.17623 12.1 5.32249 12.1 5.47499C12.1 5.62749 12.1606 5.77374 12.2684 5.88157C12.3763 5.98941 12.5225 6.04999 12.675 6.04999ZM14.2321 1.61789C14.2857 1.6713 14.3282 1.73475 14.3571 1.80461C14.3861 1.87446 14.4011 1.94935 14.4011 2.02499C14.4011 2.10062 14.3861 2.17551 14.3571 2.24536C14.3282 2.31522 14.2857 2.37867 14.2321 2.43209L13.0821 3.58209C13.0287 3.63547 12.9652 3.6778 12.8954 3.70667C12.8256 3.73553 12.7507 3.75036 12.6752 3.75031C12.5996 3.75025 12.5248 3.73532 12.4551 3.70636C12.3853 3.67739 12.3219 3.63497 12.2685 3.58151C12.1607 3.47354 12.1002 3.32716 12.1003 3.17458C12.1003 3.09903 12.1153 3.02423 12.1442 2.95444C12.1732 2.88466 12.2156 2.82127 12.2691 2.76789L13.4191 1.61789C13.5269 1.51009 13.6731 1.44953 13.8256 1.44953C13.9781 1.44953 14.1243 1.51009 14.2321 1.61789ZM14.2321 8.51789C14.2856 8.57127 14.328 8.63467 14.357 8.70445C14.3859 8.77423 14.4009 8.84903 14.4009 8.92458C14.401 9.00013 14.3861 9.07495 14.3573 9.14478C14.3284 9.2146 14.2861 9.27805 14.2327 9.33151C14.1793 9.38497 14.1159 9.42739 14.0461 9.45636C13.9764 9.48532 13.9016 9.50025 13.826 9.50031C13.7505 9.50036 13.6756 9.48553 13.6058 9.45667C13.536 9.4278 13.4725 9.38547 13.4191 9.33209L12.2691 8.18209C12.1611 8.07427 12.1004 7.92798 12.1003 7.77539C12.1002 7.62281 12.1607 7.47643 12.2685 7.36846C12.3763 7.26049 12.5226 7.19977 12.6752 7.19967C12.8278 7.19956 12.9742 7.26007 13.0821 7.36789L14.2321 8.51789Z" fill="white"/>
</svg>
