<svg width="16" height="15" viewBox="0 0 16 15" fill="none" xmlns="http://www.w3.org/2000/svg">
<path d="M11.75 8.2575L11.7575 8.24925L11.75 8.2575ZM4.25 11.25H11.75H4.25ZM3.5 6V1.2C3.5 1.08065 3.54741 0.966193 3.6318 0.881802C3.71619 0.797411 3.83065 0.75 3.95 0.75H12.05C12.1693 0.75 12.2838 0.797411 12.3682 0.881802C12.4526 0.966193 12.5 1.08065 12.5 1.2V6H3.5ZM14.75 13.8V9C14.75 8.20435 14.4339 7.44129 13.8713 6.87868C13.3087 6.31607 12.5456 6 11.75 6H4.25C3.45435 6 2.69129 6.31607 2.12868 6.87868C1.56607 7.44129 1.25 8.20435 1.25 9V13.8C1.25 13.9193 1.29741 14.0338 1.3818 14.1182C1.46619 14.2026 1.58065 14.25 1.7 14.25H14.3C14.4193 14.25 14.5338 14.2026 14.6182 14.1182C14.7026 14.0338 14.75 13.9193 14.75 13.8V13.8Z" stroke="#999999" stroke-linecap="round" stroke-linejoin="round"/>
</svg>
