<svg width="14" height="15" viewBox="0 0 14 15" fill="none" xmlns="http://www.w3.org/2000/svg">
<path d="M10.9375 14.0624H2.2225C1.75168 14.0625 1.29991 13.8765 0.965588 13.5449C0.631264 13.2134 0.441457 12.7633 0.4375 12.2924V8.06244C0.439484 7.59033 0.628421 7.13824 0.962959 6.8051C1.2975 6.47197 1.75039 6.28494 2.2225 6.28494H3.7225L5.77 1.71744C5.90985 1.40526 6.16606 1.16 6.48406 1.03393C6.80206 0.907846 7.15672 0.910903 7.4725 1.04244C7.89453 1.2294 8.25277 1.53553 8.50325 1.92324C8.75373 2.31095 8.88554 2.76337 8.8825 3.22494V5.07744H11.8825C11.9247 5.07031 11.9678 5.07031 12.01 5.07744C12.4854 5.16908 12.9087 5.43697 13.195 5.82744C13.4654 6.18818 13.5839 6.64046 13.525 7.08744L12.7 12.5549C12.6339 12.975 12.42 13.3576 12.0969 13.6339C11.7738 13.9103 11.3627 14.0623 10.9375 14.0624ZM4.615 12.9374H10.9375C11.0938 12.9395 11.2457 12.8853 11.3654 12.7848C11.4852 12.6844 11.5649 12.5442 11.59 12.3899L12.43 6.94494C12.4404 6.87044 12.435 6.79459 12.4144 6.72227C12.3937 6.64994 12.3582 6.58273 12.31 6.52494C12.1882 6.36386 12.0125 6.25203 11.815 6.20994H8.3125C8.23771 6.21098 8.16348 6.19689 8.09427 6.16852C8.02506 6.14014 7.9623 6.09807 7.90976 6.04483C7.85722 5.99159 7.81599 5.92828 7.78853 5.8587C7.76108 5.78913 7.74797 5.71472 7.75 5.63994V3.22494C7.751 2.98127 7.68048 2.74265 7.54716 2.53867C7.41384 2.3347 7.22359 2.17433 7 2.07744C6.9562 2.06001 6.9073 2.06046 6.86383 2.07869C6.82035 2.09692 6.78577 2.13148 6.7675 2.17494L4.615 6.96744V12.9374ZM2.2225 7.40994C2.13618 7.40895 2.05053 7.4251 1.9705 7.45744C1.89046 7.48979 1.81764 7.53769 1.75626 7.59838C1.69487 7.65907 1.64614 7.73134 1.61288 7.811C1.57962 7.89066 1.56249 7.97612 1.5625 8.06244V12.2924C1.56348 12.3781 1.58133 12.4628 1.61503 12.5416C1.64873 12.6204 1.69762 12.6918 1.7589 12.7516C1.82019 12.8115 1.89268 12.8588 1.97222 12.8907C2.05177 12.9225 2.13681 12.9384 2.2225 12.9374H3.49V7.40994H2.2225Z" fill="#0593D2"/>
</svg>
