<svg width="15" height="15" viewBox="0 0 15 15" fill="none" xmlns="http://www.w3.org/2000/svg">
<path d="M12.2356 10.1667C11.9362 10.1678 11.6402 10.2294 11.3653 10.3478C11.0903 10.4662 10.8421 10.6389 10.6356 10.8556L5.21781 8.14447C5.35108 7.74036 5.35108 7.30414 5.21781 6.90003L10.6445 4.14003C11.0332 4.54964 11.5603 4.8001 12.1234 4.84272C12.6864 4.88534 13.2452 4.71708 13.6912 4.37065C14.1371 4.02421 14.4383 3.52435 14.5362 2.96821C14.6341 2.41208 14.5218 1.83941 14.221 1.36151C13.9202 0.883606 13.4524 0.534614 12.9086 0.382366C12.3649 0.230118 11.7839 0.285491 11.2787 0.537721C10.7735 0.789951 10.3801 1.22102 10.175 1.74714C9.96987 2.27326 9.96771 2.85685 10.1689 3.38447L4.79559 6.11781C4.50539 5.76289 4.11252 5.50642 3.67084 5.38355C3.22916 5.26068 2.76028 5.27742 2.32849 5.43148C1.8967 5.58554 1.52312 5.86937 1.25897 6.24408C0.994821 6.61879 0.853027 7.06602 0.853027 7.52447C0.853027 7.98292 0.994821 8.43016 1.25897 8.80486C1.52312 9.17957 1.8967 9.46341 2.32849 9.61747C2.76028 9.77152 3.22916 9.78827 3.67084 9.66539C4.11252 9.54252 4.50539 9.28605 4.79559 8.93114L10.1556 11.6289C10.065 11.8721 10.0184 12.1294 10.0178 12.3889C10.0178 12.8284 10.1481 13.2581 10.3923 13.6235C10.6365 13.989 10.9836 14.2738 11.3896 14.442C11.7957 14.6102 12.2425 14.6542 12.6736 14.5684C13.1046 14.4827 13.5006 14.271 13.8114 13.9603C14.1222 13.6495 14.3338 13.2535 14.4196 12.8225C14.5053 12.3914 14.4613 11.9446 14.2931 11.5385C14.1249 11.1325 13.8401 10.7854 13.4746 10.5412C13.1092 10.297 12.6795 10.1667 12.24 10.1667H12.2356ZM12.2356 1.2778C12.4993 1.2778 12.7571 1.356 12.9763 1.50251C13.1956 1.64902 13.3665 1.85726 13.4674 2.10089C13.5683 2.34453 13.5947 2.61262 13.5433 2.87126C13.4919 3.1299 13.3649 3.36748 13.1784 3.55395C12.9919 3.74042 12.7543 3.86741 12.4957 3.91885C12.2371 3.9703 11.969 3.94389 11.7253 3.84298C11.4817 3.74206 11.2735 3.57116 11.127 3.3519C10.9805 3.13263 10.9023 2.87485 10.9023 2.61114C10.9023 2.25752 11.0427 1.91838 11.2928 1.66833C11.5428 1.41828 11.882 1.2778 12.2356 1.2778ZM3.11114 8.83336C2.84743 8.83336 2.58965 8.75516 2.37038 8.60865C2.15112 8.46214 1.98022 8.25391 1.8793 8.01027C1.77839 7.76664 1.75198 7.49855 1.80343 7.23991C1.85488 6.98127 1.98186 6.74369 2.16833 6.55722C2.3548 6.37075 2.59238 6.24376 2.85102 6.19231C3.10966 6.14087 3.37775 6.16727 3.62139 6.26819C3.86502 6.3691 4.07326 6.54 4.21977 6.75927C4.36628 6.97853 4.44448 7.23632 4.44448 7.50003C4.44448 7.85365 4.304 8.19279 4.05395 8.44284C3.8039 8.69288 3.46476 8.83336 3.11114 8.83336ZM12.2356 13.7222C11.9719 13.7222 11.7141 13.6441 11.4948 13.4975C11.2756 13.351 11.1047 13.1428 11.0037 12.8992C10.9028 12.6555 10.8764 12.3874 10.9279 12.1288C10.9793 11.8702 11.1063 11.6326 11.2928 11.4461C11.4792 11.2596 11.7168 11.1326 11.9755 11.0812C12.2341 11.0298 12.5022 11.0562 12.7458 11.1571C12.9895 11.258 13.1977 11.4289 13.3442 11.6482C13.4907 11.8674 13.5689 12.1252 13.5689 12.3889C13.5689 12.7425 13.4284 13.0817 13.1784 13.3317C12.9283 13.5818 12.5892 13.7222 12.2356 13.7222Z" fill="#999999"/>
</svg>
