<svg width="18" height="18" viewBox="0 0 18 18" fill="none" xmlns="http://www.w3.org/2000/svg">
<path d="M7.4375 17.125C7.18886 17.125 6.9504 17.0262 6.77459 16.8504C6.59877 16.6746 6.5 16.4361 6.5 16.1875C6.5 15.9389 6.59877 15.7004 6.77459 15.5246C6.9504 15.3488 7.18886 15.25 7.4375 15.25C7.68614 15.25 7.9246 15.3488 8.10041 15.5246C8.27623 15.7004 8.375 15.9389 8.375 16.1875C8.375 16.4361 8.27623 16.6746 8.10041 16.8504C7.9246 17.0262 7.68614 17.125 7.4375 17.125ZM13.6875 17.125C13.4389 17.125 13.2004 17.0262 13.0246 16.8504C12.8488 16.6746 12.75 16.4361 12.75 16.1875C12.75 15.9389 12.8488 15.7004 13.0246 15.5246C13.2004 15.3488 13.4389 15.25 13.6875 15.25C13.9361 15.25 14.1746 15.3488 14.3504 15.5246C14.5262 15.7004 14.625 15.9389 14.625 16.1875C14.625 16.4361 14.5262 16.6746 14.3504 16.8504C14.1746 17.0262 13.9361 17.125 13.6875 17.125ZM0.875 1.5C0.70924 1.5 0.550268 1.43415 0.433058 1.31694C0.315848 1.19973 0.25 1.04076 0.25 0.875C0.25 0.70924 0.315848 0.550268 0.433058 0.433058C0.550268 0.315848 0.70924 0.25 0.875 0.25H4C4.14443 0.250087 4.28438 0.300195 4.39604 0.391804C4.5077 0.483413 4.58419 0.610869 4.6125 0.7525L5.2625 4H17.125C17.2182 3.99997 17.3103 4.0208 17.3944 4.06097C17.4786 4.10113 17.5527 4.15961 17.6113 4.23212C17.6699 4.30463 17.7115 4.38933 17.7331 4.48002C17.7548 4.57072 17.7558 4.6651 17.7362 4.75625L15.8612 13.5062C15.8312 13.6461 15.7542 13.7713 15.6429 13.8612C15.5317 13.951 15.393 14 15.25 14H6.5C6.35557 13.9999 6.21562 13.9498 6.10396 13.8582C5.9923 13.7666 5.91581 13.6391 5.8875 13.4975L3.4875 1.5H0.875ZM7.0125 12.75H14.745L16.3525 5.25H5.5125L7.0125 12.75Z" fill="white"/>
</svg>
