<svg width="16" height="11" viewBox="0 0 16 11" fill="none" xmlns="http://www.w3.org/2000/svg">
<path d="M15.6874 5.19375C15.2329 4.27695 14.6312 3.44087 13.9062 2.71875C12.2874 1.10625 10.2499 0.25 7.9999 0.25C5.7499 0.25 3.7124 1.10625 2.09365 2.71875C1.36864 3.44087 0.766912 4.27695 0.312404 5.19375C0.272172 5.29084 0.251465 5.39491 0.251465 5.5C0.251465 5.60509 0.272172 5.70916 0.312404 5.80625C0.766912 6.72305 1.36864 7.55913 2.09365 8.28125C3.7124 9.89375 5.7499 10.75 7.9999 10.75C10.2499 10.75 12.2874 9.89375 13.9062 8.28125C14.6312 7.55913 15.2329 6.72305 15.6874 5.80625C15.7276 5.70916 15.7483 5.60509 15.7483 5.5C15.7483 5.39491 15.7276 5.29084 15.6874 5.19375ZM12.8062 7.25625C11.4687 8.58125 9.8499 9.25 7.9999 9.25C6.1499 9.25 4.53115 8.58125 3.19365 7.25625C2.6664 6.73449 2.21227 6.1437 1.84365 5.5C2.21064 4.85521 2.66493 4.26421 3.19365 3.74375C4.53115 2.41875 6.1499 1.75 7.9999 1.75C9.8499 1.75 11.4687 2.41875 12.8062 3.74375C13.3334 4.26551 13.7875 4.8563 14.1562 5.5C13.7875 6.1437 13.3334 6.73449 12.8062 7.25625ZM7.9999 2.75C7.45601 2.75 6.92432 2.91128 6.47209 3.21346C6.01985 3.51563 5.66738 3.94512 5.45924 4.44762C5.25109 4.95012 5.19664 5.50305 5.30274 6.0365C5.40885 6.56995 5.67077 7.05995 6.05536 7.44454C6.43995 7.82914 6.92996 8.09105 7.46341 8.19716C7.99685 8.30327 8.54979 8.24881 9.05228 8.04067C9.55478 7.83253 9.98427 7.48005 10.2864 7.02782C10.5886 6.57558 10.7499 6.0439 10.7499 5.5C10.7499 4.77065 10.4602 4.07118 9.94445 3.55546C9.42872 3.03973 8.72925 2.75 7.9999 2.75ZM7.9999 6.75C7.75268 6.75 7.511 6.67669 7.30544 6.53934C7.09988 6.40199 6.93966 6.20676 6.84505 5.97835C6.75044 5.74995 6.72569 5.49861 6.77392 5.25614C6.82215 5.01366 6.94121 4.79093 7.11602 4.61612C7.29084 4.4413 7.51356 4.32225 7.75604 4.27402C7.99852 4.22579 8.24985 4.25054 8.47826 4.34515C8.70667 4.43976 8.90189 4.59998 9.03924 4.80554C9.17659 5.0111 9.2499 5.25277 9.2499 5.5C9.24826 5.83101 9.11604 6.148 8.88197 6.38207C8.64791 6.61613 8.33092 6.74836 7.9999 6.75Z" fill="#0593D2"/>
</svg>
